<svg xmlns="http://www.w3.org/2000/svg" xmlns:graphite="https://graphite.art" viewBox="0 0 1024 1024" width="1024" height="1024"><defs><clipPath id="artboard-3303772713744273462"><rect x="0" y="0" width="1024" height="1024" /></clipPath></defs><g>
<rect fill="#ffffff" x="0" y="0" width="1024" height="1024"/>
<g clip-path="url(#artboard-3303772713744273462)">
	<g>
		<path d="M464.50073932709074,560.8521447470106 C459.3978375333752,555.2690573658766 451.6852961235445,552.8625916652306 444.31230967644035,554.5515473521756 C433.10835059781755,557.1180618307966 426.0512907758964,568.2171295267088 428.47729095262264,579.4525222348844 C430.90533891860275,590.6878834373952 441.91315129116356,597.884596460565 453.17803997619876,595.5968441054721 C460.5922972528791,594.0926376378274 466.62218598510503,588.7170780717565 468.9666211406309,581.5255319776394 C471.30998514485464,574.3329777022436 469.60357811190613,566.4352636338095 464.50073932709074,560.8521447470106 C464.50073932709074,560.8521447470106 464.50073932709074,560.8521447470106 464.50073932709074,560.8521447470106 Z" fill="#233b5d"/>
	</g>
	<g>
		<g transform="matrix(1,0,0,1,0.08944981,-0.02080354)">
			<path d="M-0.0894498095470766,0.020803539831206308 C-0.0894498095470766,0.020803539831206308 1023.9105501904529,0.020803539831206308 1023.9105501904529,0.020803539831206308 C1023.9105501904529,0.020803539831206308 1023.9105501904529,1024.0208035398311 1023.9105501904529,1024.0208035398311 C1023.9105501904529,1024.0208035398311 -0.0894498095470766,1024.0208035398311 -0.0894498095470766,1024.0208035398311 C-0.0894498095470766,1024.0208035398311 -0.0894498095470766,0.020803539831206308 -0.0894498095470766,0.020803539831206308 C-0.0894498095470766,0.020803539831206308 -0.0894498095470766,0.020803539831206308 -0.0894498095470766,0.020803539831206308 Z" fill="#222222"/>
		</g>
		<g transform="matrix(1,0,0,1,0.08944981,-0.02080354)">
			<path d="M655.9354366086882,380.43388263837187 C608.5513485241909,328.59092838498873 536.9348925757695,306.2451754504209 468.47144699552246,321.9283354006229 C364.4346841226061,345.7602555592439 298.90484291905796,448.823027021278 321.4319874172288,553.1516735971863 C343.9781471013275,657.4800276204915 446.19354770366954,724.3066485499203 550.7960854932726,703.0632338240594 C619.6427602052981,689.095602338788 675.6345841473913,639.1796920824199 697.4043391629857,572.401049779909 C719.164147773633,505.61304579409716 703.3189396105408,432.27712944435734 655.9354366086882,380.43388263837187 C655.9354366086882,380.43388263837187 655.9354366086882,380.43388263837187 655.9354366086882,380.43388263837187 Z" fill="#269ad4"/>
		</g>
		<g transform="matrix(1,0,0,1,0.08944981,-0.02080354)">
			<path d="M912.9094795156784,421.5904629411798 C880.348106165307,385.96504822347197 831.1347466930602,370.6095051812563 784.0880712686876,381.3866509931895 C712.5961419098653,397.76345766629265 667.5653792366597,468.5860801068675 683.0455708405302,540.2785859590272 C698.5388292901152,611.9708907750387 768.7791558578756,657.89277387526 840.6598741338057,643.2947350380023 C887.9698967564264,633.6964651968415 926.4463296191966,599.3952755847749 941.4060587068357,553.5063624127947 C956.358952829024,507.6110160840849 945.4704508092582,457.2160786950353 912.9094795156784,421.5904629411798 C912.9094795156784,421.5904629411798 912.9094795156784,421.5904629411798 912.9094795156784,421.5904629411798 Z" fill="#269ad4"/>
		</g>
		<g transform="matrix(1,0,0,1,0.08944981,-0.02080354)">
			<path d="M876.7384785159795,506.31230612284844 C873.6006907523251,471.70104165975215 843.029398307009,446.16960097278945 808.4144961831316,449.2522087273502 C773.7185698556727,452.33951301047864 748.1154234437674,482.9988458662458 751.2615287362852,517.6888757741018 C754.4064150806074,552.377722586975 785.1069160346435,577.931426970431 819.791083097158,574.7290398117092 C854.3953732014512,571.5347550610509 879.8775569306645,540.9212760987054 876.7384785159795,506.31230612284844 C876.7384785159795,506.31230612284844 876.7384785159795,506.31230612284844 876.7384785159795,506.31230612284844 Z" fill="#222222"/>
		</g>
		<g transform="matrix(1,0,0,1,0.08944981,-0.02080354)">
			<path d="M308.90947951570115,421.59046294115933 C276.3481061653306,385.9650482234524 227.13474669308516,370.6095051812372 180.08807126871307,381.38665099316995 C108.5961419098926,397.76345766627264 63.565379236688386,468.5860801068461 79.04557084055841,540.278585959004 C94.53882929014344,611.9708907750141 164.77915585790197,657.8927738752341 236.65987413383027,643.2947350379768 C283.96989675645,633.696465196816 322.44632961921934,599.3952755847504 337.40605870685795,553.5063624127715 C352.35895282904585,507.6110160840626 341.47045080928046,457.21607869501395 308.90947951570115,421.59046294115933 C308.90947951570115,421.59046294115933 308.90947951570115,421.59046294115933 308.90947951570115,421.59046294115933 Z" fill="#269ad4"/>
		</g>
		<g transform="matrix(1,0,0,1,0.08944981,-0.02080354)">
			<path d="M635.4431805739354,500.3520830464941 C629.0032409045141,432.0931795061033 568.3867308259269,382.01974436628205 500.13984699008637,388.5771642447924 C432.05868021311545,395.11956076518646 382.1318249003063,455.5561083335936 388.556679871677,523.6482219389795 C394.9815041830922,591.7403355443655 455.3307514305661,641.7716133017177 523.4350051539438,635.4633358886208 C591.7050372561021,629.1399737975787 641.8840400420182,568.6119677041496 635.4431805739354,500.3520830464941 C635.4431805739354,500.3520830464941 635.4431805739354,500.3520830464941 635.4431805739354,500.3520830464941 Z" fill="#222222"/>
		</g>
		<g transform="matrix(1,0,0,1,0.08944981,-0.02080354)">
			<path d="M272.67359297685795,506.57732917719784 C269.6773600878733,471.82901197506465 239.07762572487053,446.128616694226 204.39933994016206,449.2333600295934 C169.86746992631117,452.325212291876 144.3431009953008,482.8211941858166 147.32648318369382,517.4228396230754 C150.30866787982035,552.0232675700986 180.6753023302835,577.6838079499837 215.22474152171657,574.7996451985094 C249.92175823023592,571.9025913739506 275.66868199263286,541.3244646976317 272.67359297685795,506.57732917719784 C272.67359297685795,506.57732917719784 272.67359297685795,506.57732917719784 272.67359297685795,506.57732917719784 Z" fill="#222222"/>
		</g>
		<g transform="matrix(1,0,0,1,0.08944981,-0.02080354)">
			<path d="M527.4112895175452,497.8521447470379 C522.3083877238292,492.2690573659034 514.5958463139979,489.8625916652572 507.22285986689303,491.5515473522023 C496.0189007882692,494.1180618308235 488.96184096634744,505.21712952673676 491.38784114307396,516.4525222349134 C493.8158891090542,527.6878834374252 504.823701481616,534.8845964605957 516.0885901666524,532.5968441055026 C523.5028474433333,531.0926376378577 529.5327361755598,525.7170780717863 531.8771713310858,518.5255319776686 C534.2205353353098,511.3329777022721 532.5141283023611,503.43526363383734 527.4112895175452,497.8521447470379 C527.4112895175452,497.8521447470379 527.4112895175452,497.8521447470379 527.4112895175452,497.8521447470379 Z" fill="#269ad4"/>
		</g>
		<g transform="matrix(1,0,0,1,0.08944981,-0.02080354)">
			<path d="M464.5007393270896,497.8313412072029 C459.3978375333745,492.2482538260684 451.6852961235445,489.84178812542217 444.31230967644103,491.5307438123673 C433.10835059781914,494.09725829098846 426.0512907758987,505.19632598690174 428.47729095262474,516.4317186950784 C430.90533891860457,527.6670798975902 441.91315129116447,534.8637929207607 453.17803997619865,532.5760405656675 C460.5922972528783,531.0718340980227 466.62218598510367,525.6962745319513 468.9666211406293,518.5047284378336 C471.30998514485293,511.3121741624371 469.60357811190454,503.4144600940023 464.5007393270896,497.8313412072029 C464.5007393270896,497.8313412072029 464.5007393270896,497.8313412072029 464.5007393270896,497.8313412072029 Z" fill="#269ad4"/>
		</g>
		<g transform="matrix(1,0,0,1,0.08944981,-0.02080354)">
			<path d="M590.5007393270921,497.8313412072066 C585.3978375333761,492.2482538260721 577.6852961235448,489.84178812542586 570.31230967644,491.530743812371 C559.1083505978163,494.09725829099216 552.0512907758945,505.19632598690544 554.4772909526209,516.431718695082 C556.9053389186013,527.6670798975938 567.9131512911631,534.8637929207644 579.1780399761992,532.5760405656712 C586.5922972528803,531.0718340980263 592.6221859851066,525.6962745319549 594.9666211406327,518.5047284378372 C597.3099851448567,511.3121741624408 595.603578111908,503.414460094006 590.5007393270921,497.8313412072066 C590.5007393270921,497.8313412072066 590.5007393270921,497.8313412072066 590.5007393270921,497.8313412072066 Z" fill="#269ad4"/>
		</g>
		<g transform="matrix(1,0,0,1,0.08944981,-0.02080354)">
			<path d="M527.5007393270911,560.8313412072074 C522.3978375333754,555.2482538260732 514.6852961235445,552.8417881254272 507.3123096764401,554.5307438123722 C496.108350597817,557.0972582909932 489.05129077589567,568.1963259869059 491.477290952622,579.4317186950818 C493.9053389186022,590.6670798975928 504.91315129116333,597.8637929207629 516.1780399761989,595.5760405656699 C523.5922972528793,594.0718340980251 529.6221859851055,588.6962745319541 531.9666211406314,581.5047284378368 C534.3099851448553,574.3121741624409 532.6035781119067,566.4144600940065 527.5007393270911,560.8313412072074 C527.5007393270911,560.8313412072074 527.5007393270911,560.8313412072074 527.5007393270911,560.8313412072074 Z" fill="#269ad4"/>
		</g>
		<g transform="matrix(1,0,0,1,0.08944981,-0.02080354)">
			<path d="M464.50073932709074,560.8521447470106 C459.3978375333752,555.2690573658766 451.6852961235445,552.8625916652306 444.31230967644035,554.5515473521756 C433.10835059781755,557.1180618307966 426.0512907758964,568.2171295267088 428.47729095262264,579.4525222348844 C430.90533891860275,590.6878834373952 441.91315129116356,597.884596460565 453.17803997619876,595.5968441054721 C460.5922972528791,594.0926376378274 466.62218598510503,588.7170780717565 468.9666211406309,581.5255319776394 C471.30998514485464,574.3329777022436 469.60357811190613,566.4352636338095 464.50073932709074,560.8521447470106 C464.50073932709074,560.8521447470106 464.50073932709074,560.8521447470106 464.50073932709074,560.8521447470106 Z" fill="#233b5d"/>
		</g>
		<g transform="matrix(1,0,0,1,0.08944981,-0.02080354)">
			<path d="M590.5007393270902,560.8313412072084 C585.3978375333747,555.2482538260746 577.6852961235443,552.8417881254286 570.3123096764405,554.5307438123735 C559.108350597818,557.0972582909944 552.0512907758971,568.1963259869063 554.4772909526232,579.4317186950817 C556.9053389186032,590.667079897592 567.9131512911637,597.8637929207616 579.1780399761986,595.5760405656688 C586.5922972528787,594.071834098024 592.6221859851045,588.6962745319535 594.9666211406302,581.5047284378365 C597.309985144854,574.312174162441 595.6035781119054,566.4144600940072 590.5007393270902,560.8313412072084 C590.5007393270902,560.8313412072084 590.5007393270902,560.8313412072084 590.5007393270902,560.8313412072084 Z" fill="#233b5d"/>
		</g>
		<g transform="matrix(1,0,0,1,0.08944981,-0.02080354)">
			<path d="M527.5007393270917,434.83134120720644 C522.3978375333758,429.2482538260725 514.6852961235446,426.84178812542655 507.31230967644,428.5307438123715 C496.1083505978164,431.09725829099244 489.0512907758948,442.1963259869046 491.4772909526213,453.4317186950802 C493.9053389186015,464.6670798975908 504.913151291163,471.86379292076055 516.178039976199,469.5760405656676 C523.5922972528798,468.07183409802286 529.6221859851062,462.69627453195216 531.9666211406321,455.504728437835 C534.3099851448561,448.31217416243936 532.6035781119074,440.4144600940054 527.5007393270917,434.83134120720644 C527.5007393270917,434.83134120720644 527.5007393270917,434.83134120720644 527.5007393270917,434.83134120720644 Z" fill="#233b5d"/>
		</g>
		<g transform="matrix(1,0,0,1,0.08944981,-0.02080354)">
			<path d="M527.4112895175452,497.8521447470379 C522.3083877238292,492.2690573659034 514.5958463139979,489.8625916652572 507.22285986689303,491.5515473522023 C496.0189007882692,494.1180618308235 488.96184096634744,505.21712952673676 491.38784114307396,516.4525222349134 C493.8158891090542,527.6878834374252 504.823701481616,534.8845964605957 516.0885901666524,532.5968441055026 C523.5028474433333,531.0926376378577 529.5327361755598,525.7170780717863 531.8771713310858,518.5255319776686 C534.2205353353098,511.3329777022721 532.5141283023611,503.43526363383734 527.4112895175452,497.8521447470379 C527.4112895175452,497.8521447470379 527.4112895175452,497.8521447470379 527.4112895175452,497.8521447470379 Z" fill="#269ad4"/>
		</g>
		<g transform="matrix(1,0,0,1,0.08944981,-0.02080354)">
			<path d="M527.4112895175452,497.8521447470379 C522.3083877238292,492.2690573659034 514.5958463139979,489.8625916652572 507.22285986689303,491.5515473522023 C496.0189007882692,494.1180618308235 488.96184096634744,505.21712952673676 491.38784114307396,516.4525222349134 C493.8158891090542,527.6878834374252 504.823701481616,534.8845964605957 516.0885901666524,532.5968441055026 C523.5028474433333,531.0926376378577 529.5327361755598,525.7170780717863 531.8771713310858,518.5255319776686 C534.2205353353098,511.3329777022721 532.5141283023611,503.43526363383734 527.4112895175452,497.8521447470379 C527.4112895175452,497.8521447470379 527.4112895175452,497.8521447470379 527.4112895175452,497.8521447470379 Z" fill="#269ad4"/>
		</g>
		<g transform="matrix(1,0,0,1,0.08944981,-0.02080354)">
			<path d="M464.5007393270844,434.83134120719933 C459.3978375333685,429.2482538260655 451.68529612353746,426.8417881254195 444.31230967643296,428.53074381236445 C433.1083505978096,431.09725829098534 426.051290775888,442.19632598689736 428.47729095261445,453.43171869507273 C430.9053389185947,464.6670798975831 441.91315129115605,471.86379292075287 453.1780399761918,469.5760405656599 C460.5922972528725,468.0718340980152 466.6221859850988,462.6962745319446 468.96662114062474,455.50472843782757 C471.3099851448486,448.31217416243203 469.6035781119,440.41446009399806 464.5007393270844,434.83134120719933 C464.5007393270844,434.83134120719933 464.5007393270844,434.83134120719933 464.5007393270844,434.83134120719933 Z" fill="#233b5d"/>
		</g>
		<g transform="matrix(1,0,0,1,0.08944981,-0.02080354)">
			<path d="M590.5007393270894,434.83134120720877 C585.3978375333744,429.24825382607526 577.6852961235444,426.84178812542945 570.3123096764409,428.5307438123743 C559.1083505978191,431.097258290995 552.0512907758986,442.19632598690634 554.4772909526247,453.4317186950809 C556.9053389186045,464.6670798975906 567.9131512911644,471.8637929207599 579.1780399761985,469.5760405656672 C586.5922972528782,468.0718340980226 592.6221859851036,462.6962745319522 594.9666211406292,455.50472843783564 C597.3099851448528,448.31217416244056 595.6035781119044,440.41446009400715 590.5007393270894,434.83134120720877 C590.5007393270894,434.83134120720877 590.5007393270894,434.83134120720877 590.5007393270894,434.83134120720877 Z" fill="#233b5d"/>
		</g>
		<g transform="matrix(1,0,0,1,0.08944981,-0.02080354)">
			<path d="M527.5007393270917,434.83134120720644 C522.3978375333758,429.2482538260725 514.6852961235446,426.84178812542655 507.31230967644,428.5307438123715 C496.1083505978164,431.09725829099244 489.0512907758948,442.1963259869046 491.4772909526213,453.4317186950802 C493.9053389186015,464.6670798975908 504.913151291163,471.86379292076055 516.178039976199,469.5760405656676 C523.5922972528798,468.07183409802286 529.6221859851062,462.69627453195216 531.9666211406321,455.504728437835 C534.3099851448561,448.31217416243936 532.6035781119074,440.4144600940054 527.5007393270917,434.83134120720644 C527.5007393270917,434.83134120720644 527.5007393270917,434.83134120720644 527.5007393270917,434.83134120720644 Z" fill="#233b5d"/>
		</g>
		<g transform="matrix(1,0,0,1,0.08944981,-0.02080354)">
			<path d="M527.4112895175452,497.8521447470379 C522.3083877238292,492.2690573659034 514.5958463139979,489.8625916652572 507.22285986689303,491.5515473522023 C496.0189007882692,494.1180618308235 488.96184096634744,505.21712952673676 491.38784114307396,516.4525222349134 C493.8158891090542,527.6878834374252 504.823701481616,534.8845964605957 516.0885901666524,532.5968441055026 C523.5028474433333,531.0926376378577 529.5327361755598,525.7170780717863 531.8771713310858,518.5255319776686 C534.2205353353098,511.3329777022721 532.5141283023611,503.43526363383734 527.4112895175452,497.8521447470379 C527.4112895175452,497.8521447470379 527.4112895175452,497.8521447470379 527.4112895175452,497.8521447470379 Z" fill="#269ad4"/>
		</g>
		<g transform="matrix(1,0,0,1,0.08944981,-0.02080354)">
			<path d="M527.4112895175452,497.8521447470379 C522.3083877238292,492.2690573659034 514.5958463139979,489.8625916652572 507.22285986689303,491.5515473522023 C496.0189007882692,494.1180618308235 488.96184096634744,505.21712952673676 491.38784114307396,516.4525222349134 C493.8158891090542,527.6878834374252 504.823701481616,534.8845964605957 516.0885901666524,532.5968441055026 C523.5028474433333,531.0926376378577 529.5327361755598,525.7170780717863 531.8771713310858,518.5255319776686 C534.2205353353098,511.3329777022721 532.5141283023611,503.43526363383734 527.4112895175452,497.8521447470379 C527.4112895175452,497.8521447470379 527.4112895175452,497.8521447470379 527.4112895175452,497.8521447470379 Z" fill="#269ad4"/>
		</g>
	</g>
	<g>
		<path d="M209.99999999998983,511.9999999999076 L209.99999999998983,511.9999999999076" transform="matrix(1,0,0,1,0,0)" fill="none" stroke-width="2" stroke="#000000"/>
	</g>
</g></g></svg>