<svg xmlns="http://www.w3.org/2000/svg" xmlns:graphite="https://graphite.art" viewBox="0 0 1024 1024" width="1024" height="1024"><defs><clipPath id="artboard-2054980732245777777"><rect x="0" y="0" width="1024" height="1024" /></clipPath></defs><g>
<rect fill="#ffffff" x="0" y="0" width="1024" height="1024"/>
<g clip-path="url(#artboard-2054980732245777777)">
	<g>
		<g>
			<g>
				<path d="M468.56088535000004,321.90754119 C537.0243253,306.22437468 608.64078037,328.57013884 656.02487461,380.41306487 C703.4084195300001,432.25632659 719.25357334,505.59223357 697.4938077200001,572.3802584700001 C675.72403233,639.15888396 619.73221104,689.07477752 550.8855313500001,703.04242888 C446.28299229,724.28583709 344.06759922000003,657.45923796 321.52142613,553.13086882 C298.994296,448.80222503 364.52414219,345.73945037 468.56088535000004,321.90754119 ZM500.22931187,388.55637542 C432.14813511,395.09876433 382.22128575,455.53531829 388.64612095,523.62738982 C395.07095616,591.7195529100001 455.42019932,641.7508029100001 523.52444737,635.44251433 C591.7944669,629.11915007 641.97348301,568.59113494 635.53262608,500.33127776000003 C629.09268467,432.07236663000003 568.47616856,381.99894133 500.22931187,388.55637542 Z" fill="#269ad4"/>
			</g>
			<g>
				<path d="M784.17752354,381.36585418 C831.2242154300001,370.58869353 880.4375333,385.94425383000004 912.99893467,421.56965056 C945.55990879,457.19526091 956.44839756,507.59021941000003 941.4955167,553.48554412 C926.53579991,599.37446013 888.05935948,633.67566863 840.74930088,643.27393523 C768.86862461,657.87195769 698.6282681700001,611.95008269 683.13504307,540.25776091 C667.65481846,468.56528655 712.68558018,397.74265471 784.17752354,381.36585418 ZM808.50393955,449.23139373000004 C773.8080167,452.31870452 748.20486729,482.97803679000003 751.35098545,517.66810027 C754.49588291,552.35694304 785.1963834000001,577.91059295 819.8805264700001,574.7082614 C854.4848355500001,571.51392546 879.9670132800001,540.90046111 876.82791416,506.29151336 C873.69015782,471.68024627 843.11886875,446.14878264000004 808.50393955,449.23139373000004 Z" fill="#269ad4"/>
			</g>
			<g>
				<path d="M180.17752354,381.36585418 C227.22420017000002,370.58869353 276.43756382,385.94425383000004 308.99893467,421.56965056 C341.55990879,457.19526091 352.44839756,507.59021941000003 337.4955167,553.48554412 C322.53576939,599.37446013 284.05935948,633.67566863 236.74933140000002,643.27393523 C164.86860935,657.87195769 94.6282758,611.95008269 79.13502018,540.25776091 C63.6548299,468.56528655 108.68559544,397.74265471 180.17752354,381.36585418 ZM204.48878758,449.21256438 C169.95692722,452.30442229 144.43254368,482.80039397 147.41592686,517.40204802 C150.39811985,552.0024508600001 180.76475804,577.66303435 215.31419651000002,574.77881804 C250.01120274000002,571.88178435 275.75812046,541.30365935 272.76303379,506.556528 C269.76681797000003,471.80820647 239.16707127,446.10782805 204.48878758,449.21256438 Z" fill="#269ad4"/>
			</g>
		</g>
		<g>
			<g>
				<g>
					<path d="M590.5901822298765,560.8105563241988 C585.487276956439,555.2274264413863 577.7747525423765,552.8209933359176 570.4017667025328,554.5099581796676 C559.1977872103453,557.0764254648238 552.1407193392515,568.1755465585738 554.5667447298765,579.4108981210738 C556.9947842806578,590.6462496835738 568.0025967806578,597.8429659921676 579.2674893587828,595.5552462656051 C586.6817349642515,594.0510348398238 592.711642190814,588.6754855234176 595.0560635775328,581.4838961679488 C597.3994473665953,574.2913912851363 595.6930264681578,566.3936862070113 590.5901822298765,560.8105563241988 C590.5901822298765,560.8105563241988 590.5901822298765,560.8105563241988 590.5901822298765,560.8105563241988 C590.5901822298765,560.8105563241988 590.5901822298765,560.8105563241988 590.5901822298765,560.8105563241988 Z" fill="#233b5d"/>
				</g>
			</g>
			<g>
				<g>
					<path d="M464.5901822298765,560.8313693124801 C459.487276956439,555.2482394296676 451.7747525423766,552.8418063241988 444.4017667025328,554.5307711679488 C433.1977872103453,557.0972384531051 426.14074985682964,568.1962985116988 428.5667447298765,579.4317111093551 C430.99478428065777,590.6670626718551 442.0025967806578,597.8637789804488 453.2674893587828,595.5760592538863 C460.6817349642516,594.0718478281051 466.7116421908141,588.6962985116988 469.0560635775328,581.5047091562301 C471.3994473665953,574.3122042734176 469.69302646815777,566.4144381601363 464.5901822298765,560.8313693124801 C464.5901822298765,560.8313693124801 464.5901822298765,560.8313693124801 464.5901822298765,560.8313693124801 C464.5901822298765,560.8313693124801 464.5901822298765,560.8313693124801 464.5901822298765,560.8313693124801 Z" fill="#233b5d"/>
				</g>
			</g>
			<g>
				<g>
					<path d="M590.5901822298765,434.8105258066207 C585.487276956439,429.22745695896447 577.7747525423765,426.8209933359176 570.4017667025328,428.50992766208947 C559.1977872103453,431.07645598240197 552.1407193392515,442.1755160409957 554.5667447298765,453.41092863865197 C556.9947842806578,464.64628020115197 568.0025967806578,471.8429965097457 579.2674893587828,469.5552462656051 C586.6817349642515,468.05103483982384 592.711642190814,462.6754855234176 595.0560635775328,455.48392668552697 C597.3994473665953,448.2913607675582 595.6930264681578,440.3936556894332 590.5901822298765,434.8105258066207 C590.5901822298765,434.8105258066207 590.5901822298765,434.8105258066207 590.5901822298765,434.8105258066207 C590.5901822298765,434.8105258066207 590.5901822298765,434.8105258066207 590.5901822298765,434.8105258066207 Z" fill="#233b5d"/>
				</g>
			</g>
			<g>
				<g>
					<path d="M464.5901822298765,434.8105258066207 C459.487276956439,429.22745695896447 451.7747525423766,426.8209933359176 444.4017667025328,428.50992766208947 C433.1977872103453,431.07645598240197 426.14074985682964,442.1755160409957 428.5667447298765,453.41092863865197 C430.99478428065777,464.64628020115197 442.0025967806578,471.8429965097457 453.2674893587828,469.5552462656051 C460.6817349642516,468.05103483982384 466.7116421908141,462.6754855234176 469.0560635775328,455.48392668552697 C471.3994473665953,448.2913607675582 469.69302646815777,440.3936556894332 464.5901822298765,434.8105258066207 C464.5901822298765,434.8105258066207 464.5901822298765,434.8105258066207 464.5901822298765,434.8105258066207 C464.5901822298765,434.8105258066207 464.5901822298765,434.8105258066207 464.5901822298765,434.8105258066207 Z" fill="#233b5d"/>
				</g>
			</g>
			<g>
				<g>
					<path d="M590.5901822298765,497.8105258066207 C585.487276956439,492.22745695896447 577.7747525423765,489.8209933359176 570.4017667025328,491.50992766208947 C559.1977872103453,494.07645598240197 552.1407193392515,505.1755160409957 554.5667447298765,516.4108981210738 C556.9947842806578,527.6462496835738 568.0025967806578,534.8429659921676 579.2674893587828,532.5552462656051 C586.6817349642515,531.0510348398238 592.711642190814,525.6754855234176 595.0560635775328,518.4838961679488 C597.3994473665953,511.2913607675582 595.6930264681578,503.3936556894332 590.5901822298765,497.8105258066207 C590.5901822298765,497.8105258066207 590.5901822298765,497.8105258066207 590.5901822298765,497.8105258066207 C590.5901822298765,497.8105258066207 590.5901822298765,497.8105258066207 590.5901822298765,497.8105258066207 Z" fill="#269ad4"/>
				</g>
			</g>
			<g>
				<g>
					<path d="M464.5901822298765,497.8105258066207 C459.487276956439,492.22745695896447 451.7747525423766,489.8209933359176 444.4017667025328,491.50992766208947 C433.1977872103453,494.07645598240197 426.14074985682964,505.1755160409957 428.5667447298765,516.4108981210738 C430.99478428065777,527.6462496835738 442.0025967806578,534.8429659921676 453.2674893587828,532.5552462656051 C460.6817349642516,531.0510348398238 466.7116421908141,525.6754855234176 469.0560635775328,518.4838961679488 C471.3994473665953,511.2913607675582 469.69302646815777,503.3936556894332 464.5901822298765,497.8105258066207 C464.5901822298765,497.8105258066207 464.5901822298765,497.8105258066207 464.5901822298765,497.8105258066207 C464.5901822298765,497.8105258066207 464.5901822298765,497.8105258066207 464.5901822298765,497.8105258066207 Z" fill="#269ad4"/>
				</g>
			</g>
			<g>
				<g>
					<path d="M527.5901822298765,560.8105563241988 C522.487276956439,555.2274264413863 514.7747525423765,552.8209933359176 507.4017667025328,554.5099581796676 C496.1977872103453,557.0764254648238 489.14074985682964,568.1755465585738 491.5667447298765,579.4108981210738 C493.99478428065777,590.6462496835738 505.00259678065777,597.8429659921676 516.2674893587828,595.5552462656051 C523.6817349642515,594.0510348398238 529.711642190814,588.6754855234176 532.0560635775328,581.4838961679488 C534.3994473665953,574.2913912851363 532.6930264681578,566.3936862070113 527.5901822298765,560.8105563241988 C527.5901822298765,560.8105563241988 527.5901822298765,560.8105563241988 527.5901822298765,560.8105563241988 C527.5901822298765,560.8105563241988 527.5901822298765,560.8105563241988 527.5901822298765,560.8105563241988 Z" fill="#269ad4"/>
				</g>
			</g>
			<g>
				<g>
					<path d="M527.5901822298765,434.8105258066207 C522.487276956439,429.22745695896447 514.7747525423765,426.8209933359176 507.4017667025328,428.50992766208947 C496.1977872103453,431.07645598240197 489.14074985682964,442.1755160409957 491.5667447298765,453.41092863865197 C493.99478428065777,464.64628020115197 505.00259678065777,471.8429965097457 516.2674893587828,469.5552462656051 C523.6817349642515,468.05103483982384 529.711642190814,462.6754855234176 532.0560635775328,455.48392668552697 C534.3994473665953,448.2913607675582 532.6930264681578,440.3936556894332 527.5901822298765,434.8105258066207 C527.5901822298765,434.8105258066207 527.5901822298765,434.8105258066207 527.5901822298765,434.8105258066207 C527.5901822298765,434.8105258066207 527.5901822298765,434.8105258066207 527.5901822298765,434.8105258066207 Z" fill="#233b5d"/>
				</g>
			</g>
			<g>
				<g>
					<path d="M527.5007657259703,497.83133879490197 C522.3978604525328,492.2482394296676 514.685275003314,489.8417758066207 507.3123196810484,491.5307406503707 C496.1083401888609,494.0972689706832 489.05130283534527,505.19632902927697 491.47729770839214,516.4317111093551 C493.9053372591734,527.6670626718551 504.9131497591734,534.8637789804488 516.1780118197203,532.5760592538863 C523.5923184603453,531.0718478281051 529.6221646517515,525.6962985116988 531.9666470736265,518.5047091562301 C534.3099698275328,511.31217375583947 532.6035489290953,503.41446867771447 527.5007657259703,497.83133879490197 C527.5007657259703,497.83133879490197 527.5007657259703,497.83133879490197 527.5007657259703,497.83133879490197 C527.5007657259703,497.83133879490197 527.5007657259703,497.83133879490197 527.5007657259703,497.83133879490197 Z" fill="#269ad4"/>
				</g>
			</g>
		</g>
	</g>
</g></g></svg>